<svg xmlns="http://www.w3.org/2000/svg" xmlns:xlink="http://www.w3.org/1999/xlink" width="1136" height="296" viewBox="0 0 1136 296">
    <defs>
        <path id="prefix__a" d="M0.324 0.31L119.218 0.31 119.218 44.366 0.324 44.366z"/>
    </defs>
    <g fill="none" fill-rule="evenodd">
        <g transform="translate(393 52) translate(230.458 147.576)">
            <mask id="prefix__b" fill="#fff">
                <use xlink:href="#prefix__a"/>
            </mask>
            <path fill="#F7F7F5" d="M119.17 2.041c0-.65.084-1.37-.716-1.645-.765-.263-1.333.109-1.844.666-2.301 2.507-5.057 4.346-8.183 5.694-5.932 2.558-12.258 3.213-18.572 3.851-5.166.523-10.36.773-15.496 1.567-4.228.655-8.336 1.65-12.176 3.365v-.002l-.124.057c-1.922.868-3.778 1.915-5.547 3.2-.031.137-.033.26-.021.376-.54.409-1.105.849-1.709 1.343-.112.003-.23.02-.362.07-2.39 2.061-4.462 4.453-6.885 6.49-4.171 3.508-8.662 6.481-13.712 8.54-8.152 3.324-16.818 4.292-25.442 5.432-2.226.295-4.451.605-6.68.881-.79.098-1.414.407-1.375 1.27.044.96.776 1.183 1.61 1.17.2-.004.4 0 .602 0 31.436 0 62.874 0 94.312-.006.749 0 1.509-.003 2.247-.112 6.276-.925 11.41-3.85 15.325-8.863 2.755-3.526 4.543-7.532 4.68-11.986.215-7.113.065-14.238.068-21.358" mask="url(#prefix__b)"/>
        </g>
        <path fill="#383A48" d="M267.897 137.224c-.029 6.652-1.866 12.666-6.389 17.677-4.5 4.986-10.115 7.713-16.834 8.275-2.707.226-5.406.198-8.108.2-20.916.013-41.833.015-62.75-.017-1.113-.001-1.743.311-2.403 1.267-3.707 5.374-9.21 7.98-15.296 9.612-1.754.47-3.544.608-5.361.606-49.304-.044-98.61-.078-147.915-.114-.552 0-1.107.022-1.653-.039-.746-.084-1.222-.54-1.188-1.297.038-.745.53-1.166 1.286-1.213.4-.025.802-.012 1.203-.012 7.273-.004 14.547.06 21.82-.024 17.882-.209 32.013-14.493 32.176-32.404.038-4.259-.218-8.521.251-12.777 1.305-11.81 11.604-22.282 23.404-23.765 1.598-.201 3.192-.293 4.799-.292 11.436.007 22.872-.023 34.308.04 1.37.008 1.655-.38 1.63-1.671-.084-4.262-.05-8.527-.028-12.79.073-13.837 10.89-24.78 24.745-25.053.351-.007.703-.01 1.053-.01 18.607-.046 37.213-.103 55.82-.106 1.331 0 1.769-.282 1.764-1.715-.07-19.662-.072-39.324-.09-58.986C204.14.115 204.26 0 206.784 0h139.644c2.482 0 2.585.098 2.585 2.505 0 37.369.004 74.737-.005 112.105-.002 10.148-6.358 18.2-16.03 20.35-1.718.38-3.467.474-5.229.473-18.76-.015-37.52-.014-56.278-.014-.45 0-.9.032-1.351.049-.745.15-1.217-.322-1.702-.756-3.527-3.159-3.527-3.16-3.527-7.966 0-8.203-.006-16.407.008-24.61.002-1.007-.058-1.997-.333-2.966-.318-1.856.075-3.692.143-5.539.094-2.605-.006-5.215.032-7.822.118-8.331 3.97-14.598 10.6-19.291-.382-.076-.881.007-1.377-.007-.551-.017-1.103-.004-1.655-.004-42.024 0-84.048-.004-126.072.003-9.42.002-17.624 5.687-20.905 14.444-.682 1.821-.656 2.006.88 3.148 7.804 5.8 15.67 11.518 23.469 17.327.954.71 1.948.899 3.086.897 14.945-.014 29.889-.018 44.833-.007 11.884.007 21.94 8.807 23.514 20.604.653 4.891.247 9.815.254 14.722.005 4.066.87 7.855 2.859 11.378 3.458 6.126 8.773 9.616 15.64 10.792 9.522 1.631 19.845-4 23.49-13.993.658-1.806.975-3.675 1.201-5.569.5-1.449.285-2.952.345-4.435.019-.488-.044-1.06.515-1.292.532-.22.973.136 1.326.471.633.6 1.443 1.138 1.154 2.227" transform="translate(393 52)"/>
        <path fill="#F7F7F5" d="M186.429 105.385c-.028.502-.388.538-.619.682-7.686 4.81-11.513 11.756-11.529 20.808-.01 6.922.082 13.847-.024 20.767-.127 8.31-3.315 15.2-10.15 20.113-4.1 2.95-8.906 4.134-13.865 4.347-5.108.218-10.231.065-15.348.066-31.802.002-63.604 0-95.407 0H37.81c.103-.5.516-.49.794-.63 13.272-6.688 20.074-17.47 20.469-32.316.111-4.206-.362-8.438.34-12.617 2.03-12.111 12.094-20.994 24.32-21.167 12.538-.178 25.082-.173 37.62-.012 9.478.121 18.959.28 28.43.103 12.035-.226 24.066-.023 36.098-.144.178-.002.357 0 .547 0" transform="translate(393 52)"/>
        <path fill="#F7F7F5" d="M265.101 99.059c-.023 7.567-.05 15.134-.07 22.7-.007 2.747 0 5.493 0 8.372-.762-.203-1.086-.735-1.485-1.134-16.239-16.227-32.47-32.462-48.706-48.692-.424-.423-.861-.847-1.35-1.186-.606-.421-1.244-.398-1.737.218-.453.566-.326 1.12.146 1.617.31.328.632.644.95.964 16.907 16.907 33.804 33.823 50.74 50.7 1.038 1.036 1.585 2.055 1.47 3.54-.105 1.34.03 2.7.059 4.05-.644 12.284-12.498 22.033-24.692 20.306-11.674-1.653-19.565-10.74-19.65-22.51-.037-5.061.37-10.138-.261-15.18-1.375-10.98-11.16-19.805-22.261-19.882-15.349-.106-30.697-.038-46.046-.01-1.06.001-1.899-.26-2.754-.894-8.131-6.031-16.282-12.04-24.46-18.008-.862-.629-.937-1.203-.65-2.137 2.894-9.463 11.643-15.949 21.706-15.961 18.66-.024 37.318-.007 55.977-.007h75.433c-2.441 1.51-4.446 2.96-6.127 4.806-4.166 4.575-6.144 9.972-6.133 16.144.007 4.061-.063 8.123-.099 12.184" transform="translate(393 52)"/>
        <path fill="#F7F7F5" d="M276.636 42.327c22.673 0 45.346.014 68.019-.035 1.44-.003 1.817.334 1.814 1.8-.05 23.472-.025 46.944-.04 70.417-.006 9.266-5.77 16.395-14.508 18.025-10.353 1.931-20.316-5.937-20.554-16.524-.217-9.676-.046-19.361-.072-29.042-.03-11.264-7.125-20.405-17.85-23.028-1.905-.465-3.85-.647-5.807-.648-26.531-.005-53.064-.01-79.596.027-1.193.002-1.384-.406-1.376-1.467.047-5.97.068-11.94-.012-17.908-.018-1.342.35-1.65 1.662-1.647 22.773.041 45.546.03 68.32.03" transform="translate(393 52)"/>
        <path fill="#F7F7F5" d="M269.237 79.52c.396-2.293 1.7-4.131 3.094-5.879 2.258-2.828 5.084-4.943 8.457-6.306.558-.226.98-.502 1.046.49.054.822.707 1.26 1.512 1.004.831-.265 1.229-.93.746-1.768-.4-.695.012-.748.495-.828 3.012-.499 5.978-.294 8.925.497.606.163.705.418.803.997.204 1.202 1.184 1.577 2.074.763.505-.462.809-.372 1.26-.124 4.176 2.296 7.285 5.58 9.246 9.937.216.478.338.88.059 1.406-.245.46-.176 1.076.305 1.354 1.476.853.943 2.39 1.307 3.613.167.56-.342.452-.655.531-.655.165-1.062.561-1.046 1.271.017.716.442 1.164 1.118 1.17.66.004.72.316.705.824-.02.701-.027 1.405.002 2.105.023.558-.023.92-.758.928-.69.008-1.064.513-1.063 1.212.001.63.352 1.17.95 1.15.962-.033.881.52.868 1.134-.013.55-.002 1.103-.004 1.654-.003.578.168 1.203-.837 1.158-.607-.028-.952.494-.98 1.124-.028.637.319 1.193.892 1.205.98.02.975.548.932 1.244-.034.55-.018 1.103-.003 1.654.015.573.042 1.056-.805 1.041-.617-.01-.973.47-1.017 1.1-.045.634.288 1.207.86 1.232 1.064.047.984.682.962 1.386-.018.551-.026 1.105.003 1.655.027.519-.044.804-.7.824-.65.02-1.1.454-1.127 1.177-.028.717.377 1.238 1.02 1.264.818.033.84.438.807 1.038-.03.55-.016 1.103-.004 1.654.014.61.095 1.146-.852 1.178-.632.021-1.02.587-.967 1.304.048.645.45.96 1.03 1.131.28.083.61-.164.816.377 1.012 2.671 2.177 5.277 3.829 7.631.258.37.517.746.83 1.067.49.501.809.863.028 1.476-.497.39-.402 1.109.08 1.613.44.46 1.157.592 1.48.164.826-1.089 1.355-.347 1.992.13.48.36.984.685 1.497 1.039-.283.574-.797.312-1.182.312-15.994.015-31.988.003-47.983.036-1.1.002-1.453-.262-1.451-1.414.024-14.89-.034-29.782.01-44.672.008-2.49.061-5.046 1.43-7.304.364.21.442.626.67.934.192.261.456.354.766.209.197-.092.274-.267.253-.478-.035-.342-.241-.522-.575-.533-.385-.013-.778.085-1.15-.09M226.826 157.426c1.686.86 3.037 2.236 5.199 3.172h-58.16c.278-.839.355-1.737 1.664-1.43.447.105.844-.273 1.023-.733.197-.508.201-1.113-.273-1.36-.904-.471-.61-1.064-.421-1.755.693-2.527.993-5.106.988-7.73-.015-7.27-.017-14.542.005-21.812.012-3.692 1.053-7.107 2.93-10.274.295-.495.482-1.146 1.278-.408.478.443 1.175.311 1.597-.241.455-.595.454-1.315-.189-1.72-.802-.504-.38-.836.024-1.203.928-.84 1.853-1.686 2.824-2.474.673-.545 1.289-1.152 2.367-.529.666.386 1.466-.096 1.49-.958.02-.803.454-.973 1.046-1.194 4.743-1.77 9.501-1.77 14.272-.142.572.195 1.123.287 1.103 1.273-.022 1.058 1.018 1.493 1.838.896.696-.509 1.025-.254 1.526.078 1.553 1.033 2.948 2.24 4.274 3.802-.806.244-1.532.583-1.437 1.522.054.539.375.939.925 1.055.799.169 1.338-.179 1.636-1.14 2.19 3.062 3.458 6.282 3.74 9.838.412 5.204.006 10.427.23 15.637.044 1.048.216 2.09.325 3.135.074.713.282 1.354-.353 2.063-.582.65-.239 1.444.635 1.776.378.143.765.175.928.635 1.313 3.708 3.701 6.711 6.306 9.57-.15.59-1.565.656-.895 1.401.8.893.936-.653 1.555-.75" transform="translate(393 52)"/>
        <path fill="#F5DF49" d="M242.278 19.757c-.027 2.85-2.36 5.16-5.18 5.128-2.79-.032-5.153-2.444-5.12-5.226.034-2.811 2.427-5.16 5.217-5.12 2.85.042 5.11 2.36 5.083 5.218" transform="translate(393 52)"/>
        <path fill="#94D6D3" d="M247.448 19.489c.131-2.863 2.538-5.091 5.354-4.956 2.789.133 5.109 2.661 4.946 5.393-.167 2.812-2.668 5.115-5.388 4.96-2.854-.163-5.042-2.567-4.912-5.397" transform="translate(393 52)"/>
        <path fill="#EF7B97" d="M226.865 19.736c-.013 2.837-2.319 5.143-5.148 5.15-2.76.006-5.152-2.427-5.122-5.208.03-2.828 2.332-5.113 5.185-5.148 2.744-.033 5.097 2.376 5.085 5.206" transform="translate(393 52)"/>
        <path fill="#3B3D4B" d="M226.826 157.426c-.093 1.425-.764 2.093-1.702 1.673-.622-.278-.89-.8-.723-1.456.239-.948.969-1 1.765-.868.305.13.524.349.66.651" transform="translate(393 52)"/>
        <path fill="#393B48" d="M329.82 170.69c-.449.476-.742.899-1.136 1.183-1 .721-.906 1.357.02 2.048.758.565 1.15 1.072.168 1.945-.784.697-1.266.818-1.861-.053-.753-1.1-1.49-1.118-2.246-.001-.594.877-1.097.783-1.853.043-.785-.77-.77-1.277.076-1.85 1.13-.767 1.054-1.484-.02-2.24-.775-.544-.99-1.067-.129-1.862.719-.664 1.207-.967 1.836-.019.849 1.281 1.642 1.09 2.493-.033.226-.298.504-.92 1.028-.59.58.367 1.048.91 1.625 1.429" transform="translate(393 52)"/>
        <path fill="#F7F7F5" d="M20.47 71.936c-.002.795-.103 1.673.873 2.009.935.32 1.627-.134 2.25-.813 2.81-3.06 6.174-5.306 9.989-6.95 7.241-3.123 14.963-3.923 22.67-4.703 6.305-.637 12.645-.942 18.914-1.912 5.161-.798 10.176-2.013 14.864-4.107v.003l.15-.07c2.347-1.059 4.613-2.338 6.77-3.905.04-.168.042-.317.027-.459.66-.5 1.35-1.036 2.086-1.64.137-.004.28-.025.442-.086 2.918-2.516 5.446-5.434 8.403-7.921 5.092-4.282 10.573-7.91 16.738-10.424 9.95-4.057 20.528-5.24 31.055-6.63 2.718-.36 5.433-.738 8.153-1.077.965-.12 1.728-.495 1.68-1.548-.055-1.172-.947-1.445-1.965-1.428-.244.004-.49-.002-.735-.002-38.373.001-76.747 0-115.12.008-.915 0-1.841.004-2.742.137-7.663 1.129-13.93 4.7-18.708 10.817-3.362 4.305-5.545 9.195-5.71 14.631-.265 8.683-.082 17.38-.085 26.07" transform="translate(393 52)"/>
        <path fill="#393B48" d="M44.646 46.214c.549-.582.907-1.097 1.387-1.444 1.22-.88 1.106-1.656-.024-2.5-.925-.69-1.401-1.308-.204-2.374.956-.85 1.545-.998 2.271.064.92 1.344 1.82 1.365 2.742.002.725-1.07 1.339-.957 2.261-.053.959.94.94 1.56-.093 2.26-1.38.935-1.287 1.81.025 2.732.945.665 1.207 1.303.157 2.274-.876.81-1.473 1.18-2.24.022-1.037-1.563-2.006-1.33-3.044.041-.276.364-.615 1.123-1.255.72-.708-.447-1.279-1.11-1.983-1.744" transform="translate(393 52)"/>
        <path fill="#3E404D" d="M296.81 92.655c-.097.747-.424 1.26-1.215 1.272-.845.012-1.327-.48-1.298-1.287.025-.724.493-1.18 1.268-1.175.79.004 1.124.506 1.245 1.19M289.261 93.935c-.784-.035-1.208-.51-1.207-1.233 0-.718.41-1.227 1.202-1.235.852-.008 1.324.506 1.29 1.301-.03.715-.497 1.171-1.285 1.167M271.71 117.595c.034.91-.397 1.387-1.122 1.43-.793.046-1.333-.397-1.336-1.251-.002-.772.482-1.22 1.208-1.24.73-.019 1.187.42 1.25 1.061M276.797 119.059c-.77-.103-1.26-.444-1.28-1.232-.02-.775.428-1.257 1.15-1.292.8-.038 1.314.437 1.317 1.28.002.791-.533 1.11-1.187 1.244" transform="translate(393 52)"/>
        <path fill="#414350" d="M290.585 111.449c-.085.759-.482 1.276-1.215 1.312-.817.04-1.33-.477-1.322-1.288.006-.743.513-1.225 1.248-1.224.732.002 1.154.498 1.289 1.2" transform="translate(393 52)"/>
        <path fill="#3E404D" d="M289.45 131.547c-.89.021-1.347-.422-1.395-1.145-.048-.716.328-1.252 1.117-1.312.85-.063 1.349.413 1.374 1.212.022.728-.43 1.185-1.097 1.245M296.812 130.272c-.112.799-.475 1.274-1.26 1.275-.775 0-1.24-.46-1.258-1.185-.02-.806.47-1.29 1.314-1.277.8.014 1.094.553 1.204 1.187M295.564 97.747c.787.028 1.214.485 1.22 1.218.005.727-.41 1.236-1.188 1.252-.84.016-1.326-.486-1.302-1.291.023-.73.501-1.158 1.27-1.18" transform="translate(393 52)"/>
        <path fill="#424450" d="M277.998 111.45c-.017.793-.454 1.272-1.175 1.31-.807.042-1.313-.435-1.307-1.284.005-.784.497-1.217 1.226-1.218.729-.001 1.187.442 1.256 1.192M270.462 110.229c.693.093 1.208.403 1.254 1.196.046.782-.393 1.276-1.11 1.333-.79.062-1.338-.385-1.36-1.238-.018-.78.48-1.147 1.216-1.291M296.814 111.514c-.132.801-.564 1.293-1.305 1.25-.792-.046-1.307-.564-1.212-1.397.083-.732.607-1.17 1.349-1.11.745.062 1.112.581 1.168 1.257" transform="translate(393 52)"/>
        <path fill="#414350" d="M289.306 72.607c.777.157 1.288.572 1.246 1.317-.044.794-.57 1.304-1.393 1.217-.73-.079-1.167-.599-1.107-1.349.06-.753.585-1.102 1.254-1.185" transform="translate(393 52)"/>
        <path fill="#444652" d="M296.814 73.894c-.085.74-.496 1.254-1.235 1.26-.804.006-1.327-.506-1.292-1.332.032-.75.562-1.203 1.29-1.189.74.015 1.156.513 1.237 1.26" transform="translate(393 52)"/>
        <path fill="#424450" d="M276.735 75.185c-.712-.13-1.204-.475-1.221-1.261-.02-.787.44-1.257 1.165-1.28.793-.025 1.324.436 1.306 1.295-.017.783-.54 1.117-1.25 1.246" transform="translate(393 52)"/>
        <path fill="#3E404D" d="M277.992 80.058c.003.823-.423 1.293-1.149 1.35-.72.056-1.252-.31-1.315-1.103-.068-.846.387-1.357 1.193-1.387.727-.027 1.181.432 1.271 1.14M290.59 98.903c-.12.756-.445 1.28-1.223 1.313-.86.037-1.32-.479-1.312-1.275.006-.73.46-1.188 1.244-1.19.794-.002 1.116.512 1.291 1.152M269.237 79.52c.202-.138.393-.295.606-.41.835-.453 1.492-.183 1.795.646.273.746 0 1.424-.847 1.608-.883.192-1.432-.232-1.541-1.145-.03-.243.014-.494.023-.741l-.036.042" transform="translate(393 52)"/>
        <path fill="#434551" d="M290.583 80.114c-.066.745-.459 1.246-1.197 1.305-.749.06-1.266-.38-1.332-1.124-.073-.828.424-1.358 1.229-1.387.74-.026 1.161.48 1.3 1.206M296.81 80.155c-.063.752-.474 1.242-1.217 1.269-.736.025-1.26-.424-1.304-1.167-.048-.824.471-1.344 1.273-1.348.737-.004 1.157.503 1.249 1.246" transform="translate(393 52)"/>
        <path fill="#40424F" d="M290.588 123.978c-.092.748-.432 1.252-1.201 1.308-.768.056-1.271-.364-1.33-1.101-.063-.803.387-1.344 1.223-1.375.773-.028 1.127.503 1.308 1.168" transform="translate(393 52)"/>
        <path fill="#3E404D" d="M296.806 124.037c-.075.754-.453 1.235-1.218 1.254-.752.02-1.263-.423-1.296-1.153-.035-.798.448-1.326 1.278-1.324.764.002 1.13.515 1.236 1.223" transform="translate(393 52)"/>
        <path fill="#40424F" d="M303.06 80.18c-.039.775-.486 1.229-1.218 1.237-.721.01-1.242-.419-1.268-1.186-.029-.84.494-1.325 1.29-1.314.73.01 1.155.503 1.195 1.263" transform="translate(393 52)"/>
        <path fill="#3D3F4C" d="M284.296 130.333c-.128.713-.475 1.205-1.253 1.208-.86.003-1.282-.504-1.238-1.317.04-.746.502-1.169 1.274-1.135.774.034 1.113.53 1.217 1.244" transform="translate(393 52)"/>
        <path fill="#41434F" d="M296.811 86.42c-.077.751-.455 1.235-1.22 1.259-.758.024-1.263-.426-1.301-1.155-.042-.804.454-1.327 1.277-1.33.761-.001 1.136.513 1.244 1.226" transform="translate(393 52)"/>
        <path fill="#40424F" d="M289.262 68.913c-.753-.09-1.21-.534-1.214-1.264-.003-.73.432-1.229 1.207-1.233.833-.005 1.33.485 1.29 1.302-.034.727-.526 1.144-1.283 1.195" transform="translate(393 52)"/>
        <path fill="#3D3F4C" d="M303.06 130.31c-.1.815-.497 1.252-1.27 1.23-.764-.02-1.212-.474-1.21-1.213.003-.82.506-1.276 1.334-1.236.782.037 1.092.561 1.147 1.22" transform="translate(393 52)"/>
        <path fill="#40424F" d="M290.598 105.23c-.174.797-.556 1.305-1.32 1.28-.833-.028-1.285-.574-1.22-1.376.06-.737.56-1.149 1.33-1.1.787.05 1.075.594 1.21 1.197" transform="translate(393 52)"/>
        <path fill="#3E404D" d="M296.806 105.299c-.137.746-.53 1.24-1.291 1.206-.82-.038-1.294-.572-1.214-1.376.072-.722.581-1.143 1.344-1.092.779.052 1.103.559 1.161 1.262" transform="translate(393 52)"/>
        <path fill="#414350" d="M284.293 111.434c-.03.766-.447 1.256-1.165 1.325-.734.072-1.246-.348-1.325-1.108-.087-.844.386-1.362 1.19-1.395.726-.03 1.175.446 1.3 1.178" transform="translate(393 52)"/>
        <path fill="#414450" d="M303.06 73.896c-.047.763-.48 1.249-1.21 1.253-.796.003-1.313-.488-1.276-1.33.033-.772.565-1.194 1.281-1.179.73.016 1.172.482 1.205 1.256M303.06 111.505c-.041.763-.473 1.254-1.203 1.26-.794.006-1.318-.479-1.283-1.324.03-.77.557-1.198 1.274-1.186.73.012 1.174.478 1.213 1.25" transform="translate(393 52)"/>
        <path fill="#3D3F4C" d="M282.99 91.457c.764.029 1.243.441 1.271 1.172.033.81-.445 1.301-1.28 1.293-.775-.007-1.183-.479-1.179-1.23.004-.75.426-1.176 1.188-1.235" transform="translate(393 52)"/>
        <path fill="#41434F" d="M284.294 117.839c-.11.748-.562 1.21-1.29 1.19-.81-.02-1.282-.531-1.201-1.374.074-.756.578-1.182 1.315-1.12.726.06 1.134.55 1.176 1.304" transform="translate(393 52)"/>
        <path fill="#434551" d="M290.588 117.676c-.07.798-.463 1.297-1.203 1.354-.749.058-1.267-.378-1.33-1.123-.07-.822.418-1.352 1.23-1.385.755-.03 1.133.51 1.303 1.154" transform="translate(393 52)"/>
        <path fill="#40424F" d="M301.787 119.053c-.728-.13-1.234-.504-1.216-1.273.02-.833.56-1.302 1.357-1.243.724.053 1.154.556 1.116 1.325-.04.784-.543 1.113-1.257 1.191" transform="translate(393 52)"/>
        <path fill="#414350" d="M283.089 75.187c-.76-.111-1.259-.462-1.296-1.232-.036-.77.407-1.268 1.134-1.31.796-.044 1.336.43 1.348 1.262.011.771-.532 1.116-1.186 1.28" transform="translate(393 52)"/>
        <path fill="#3D3F4C" d="M271.719 86.361c-.005.793-.383 1.26-1.143 1.302-.736.041-1.257-.33-1.315-1.096-.064-.827.398-1.339 1.21-1.363.736-.021 1.173.429 1.248 1.157" transform="translate(393 52)"/>
        <path fill="#3C3E4C" d="M276.807 85.172c.716.15 1.197.531 1.172 1.297-.03.849-.564 1.251-1.372 1.188-.762-.059-1.136-.555-1.077-1.316.059-.772.557-1.101 1.277-1.169" transform="translate(393 52)"/>
        <path fill="#40424F" d="M283.012 81.45c-.773-.145-1.244-.536-1.22-1.308.024-.76.49-1.236 1.224-1.225.798.014 1.303.52 1.25 1.352-.047.76-.597 1.086-1.254 1.18" transform="translate(393 52)"/>
        <path fill="#3C3E4B" d="M301.824 91.455c.76.056 1.2.459 1.213 1.217.012.75-.385 1.23-1.157 1.25-.831.021-1.316-.45-1.298-1.27.016-.744.493-1.144 1.242-1.197" transform="translate(393 52)"/>
        <path fill="#434551" d="M295.564 119.055c-.695-.06-1.224-.426-1.273-1.173-.053-.825.455-1.344 1.26-1.356.744-.011 1.221.49 1.24 1.232.019.747-.438 1.185-1.227 1.297" transform="translate(393 52)"/>
        <path fill="#3C3E4C" d="M284.304 98.877c-.096.79-.442 1.299-1.206 1.334-.842.04-1.3-.446-1.294-1.267.007-.752.44-1.183 1.219-1.186.787-.005 1.111.503 1.28 1.119M270.422 122.774c.808.131 1.274.502 1.287 1.27.013.775-.419 1.221-1.17 1.236-.817.016-1.302-.44-1.284-1.282.018-.784.57-1.076 1.167-1.224M276.707 125.299c-.757-.084-1.195-.473-1.182-1.25.014-.765.457-1.225 1.195-1.228.81-.004 1.295.493 1.257 1.32-.035.762-.538 1.116-1.27 1.158" transform="translate(393 52)"/>
        <path fill="#3C3E4B" d="M301.832 100.244c-.805-.12-1.275-.528-1.252-1.276.025-.824.54-1.262 1.363-1.203.774.055 1.138.559 1.091 1.306-.046.765-.538 1.109-1.202 1.173" transform="translate(393 52)"/>
        <path fill="#3C3E4C" d="M308.155 125.301c-.772-.064-1.27-.411-1.288-1.186-.019-.835.474-1.314 1.281-1.294.735.018 1.169.49 1.173 1.253.004.789-.472 1.138-1.166 1.227M276.775 106.53c-.72-.083-1.204-.427-1.248-1.198-.044-.77.36-1.247 1.11-1.29.807-.047 1.332.375 1.34 1.225.008.768-.484 1.132-1.202 1.263" transform="translate(393 52)"/>
        <path fill="#40424F" d="M290.594 86.402c-.138.78-.52 1.262-1.282 1.276-.77.014-1.251-.458-1.263-1.184-.012-.789.463-1.325 1.307-1.3.768.023 1.09.577 1.238 1.208" transform="translate(393 52)"/>
        <path fill="#3C3E4C" d="M270.474 104.022c.76.059 1.221.428 1.236 1.202.013.76-.418 1.243-1.15 1.274-.807.034-1.31-.439-1.304-1.272.007-.767.492-1.135 1.218-1.204" transform="translate(393 52)"/>
        <path fill="#3C3E4B" d="M301.815 104.023c.773.053 1.216.449 1.222 1.214.007.754-.423 1.24-1.162 1.263-.809.024-1.314-.465-1.297-1.285.017-.75.51-1.132 1.237-1.192" transform="translate(393 52)"/>
        <path fill="#3C3E4C" d="M284.293 105.288c-.116.724-.51 1.216-1.255 1.213-.827-.004-1.278-.527-1.236-1.34.038-.754.52-1.162 1.283-1.12.76.041 1.125.517 1.208 1.247" transform="translate(393 52)"/>
        <path fill="#3B3D4B" d="M276.763 100.234c-.747-.064-1.204-.441-1.235-1.203-.03-.759.368-1.233 1.13-1.268.822-.038 1.317.41 1.315 1.243-.002.756-.477 1.14-1.21 1.228M271.728 98.962c-.088.796-.477 1.262-1.24 1.248-.828-.016-1.282-.518-1.226-1.335.053-.747.543-1.147 1.297-1.116.78.032 1.116.52 1.169 1.203" transform="translate(393 52)"/>
        <path fill="#3D3F4C" d="M284.294 86.481c-.122.723-.517 1.184-1.274 1.186-.76.001-1.22-.429-1.219-1.19.002-.82.476-1.315 1.301-1.273.741.039 1.12.543 1.192 1.277" transform="translate(393 52)"/>
        <path fill="#3C3E4C" d="M303.05 86.361c-.034.846-.435 1.291-1.194 1.305-.745.015-1.246-.403-1.278-1.15-.034-.817.46-1.317 1.271-1.314.75.003 1.132.503 1.202 1.16" transform="translate(393 52)"/>
        <path fill="#3C3E4B" d="M303.05 123.95c-.024.835-.4 1.302-1.164 1.332-.742.03-1.255-.374-1.305-1.12-.055-.816.425-1.324 1.237-1.342.754-.017 1.142.472 1.232 1.13" transform="translate(393 52)"/>
        <path fill="#3C3E4C" d="M284.293 123.994c-.057.728-.41 1.217-1.166 1.28-.753.064-1.258-.31-1.32-1.075-.066-.814.364-1.348 1.189-1.38.749-.032 1.15.455 1.297 1.175" transform="translate(393 52)"/>
        <path fill="#3B3D4B" d="M271.722 92.696c-.054.745-.423 1.208-1.193 1.226-.754.017-1.232-.396-1.267-1.145-.04-.824.426-1.305 1.257-1.302.768.002 1.14.476 1.203 1.221M277.997 92.648c-.053.744-.408 1.223-1.17 1.271-.759.049-1.244-.347-1.296-1.102-.056-.813.358-1.33 1.208-1.343.762-.012 1.15.449 1.258 1.174" transform="translate(393 52)"/>
        <path fill="#3A3C4A" d="M271.722 130.376c-.093.755-.504 1.196-1.288 1.158-.775-.037-1.206-.503-1.173-1.271.033-.767.505-1.194 1.278-1.17.789.025 1.144.516 1.183 1.283M276.77 131.554c-.77-.048-1.233-.43-1.24-1.216-.007-.775.412-1.234 1.194-1.244.775-.01 1.231.433 1.25 1.2.017.775-.444 1.18-1.205 1.26" transform="translate(393 52)"/>
        <path fill="#393B49" d="M308.015 131.552c-.738-.108-1.185-.524-1.143-1.3.043-.773.52-1.19 1.287-1.157.78.035 1.184.518 1.153 1.285-.031.786-.516 1.146-1.297 1.172" transform="translate(393 52)"/>
        <path fill="#3E404D" d="M200.604 112.832c.706.056 1.164.507 1.156 1.233-.008.803-.504 1.279-1.351 1.232-.792-.044-1.174-.567-1.137-1.288.036-.727.49-1.17 1.332-1.177" transform="translate(393 52)"/>
        <path fill="#414350" d="M201.799 132.896c-.11.729-.522 1.24-1.256 1.245-.81.004-1.316-.514-1.272-1.339.041-.743.544-1.208 1.288-1.174.733.033 1.146.527 1.24 1.268M205.498 132.954c.079-.769.479-1.27 1.211-1.324.748-.055 1.261.413 1.324 1.14.07.82-.444 1.348-1.242 1.374-.742.023-1.143-.508-1.293-1.19" transform="translate(393 52)"/>
        <path fill="#3E404D" d="M200.565 150.447c.721.041 1.19.486 1.196 1.21.008.802-.479 1.293-1.329 1.258-.787-.03-1.187-.541-1.161-1.267.026-.725.46-1.183 1.294-1.201M189.226 139.087c-.027.806-.452 1.255-1.194 1.279-.732.023-1.24-.36-1.273-1.148-.034-.843.44-1.334 1.25-1.331.735.003 1.163.472 1.217 1.2" transform="translate(393 52)"/>
        <path fill="#414450" d="M208.074 151.64c-.132.782-.477 1.28-1.267 1.285-.776.006-1.255-.453-1.275-1.178-.02-.796.448-1.307 1.307-1.293.8.013 1.093.56 1.235 1.186" transform="translate(393 52)"/>
        <path fill="#414350" d="M206.907 112.832c.719.064 1.142.541 1.13 1.267-.014.727-.457 1.216-1.24 1.207-.847-.009-1.32-.525-1.263-1.33.052-.717.53-1.16 1.373-1.144" transform="translate(393 52)"/>
        <path fill="#424450" d="M205.498 120.357c.101-.698.422-1.208 1.208-1.254.782-.046 1.275.39 1.325 1.115.056.793-.392 1.344-1.24 1.36-.774.014-1.145-.492-1.293-1.221" transform="translate(393 52)"/>
        <path fill="#40424F" d="M208.067 126.657c-.158.719-.547 1.24-1.305 1.204-.81-.04-1.301-.57-1.222-1.384.072-.728.583-1.16 1.344-1.104.764.056 1.113.565 1.183 1.284" transform="translate(393 52)"/>
        <path fill="#424450" d="M181.706 131.6c.735.124 1.225.48 1.23 1.265.008.777-.456 1.253-1.18 1.272-.798.02-1.312-.461-1.292-1.31.019-.785.549-1.111 1.242-1.227M208.071 145.35c-.1.733-.42 1.247-1.207 1.29-.776.042-1.274-.399-1.329-1.12-.06-.797.403-1.33 1.246-1.357.79-.025 1.126.51 1.29 1.188" transform="translate(393 52)"/>
        <path fill="#40424F" d="M206.76 137.853c.759.074 1.24.5 1.279 1.225.041.741-.411 1.249-1.163 1.29-.825.045-1.35-.446-1.345-1.258.005-.726.493-1.16 1.23-1.257" transform="translate(393 52)"/>
        <path fill="#3E404D" d="M214.265 139.047c-.006.824-.418 1.285-1.161 1.32-.731.034-1.257-.372-1.309-1.13-.056-.825.429-1.335 1.237-1.35.742-.015 1.16.462 1.233 1.16M200.44 121.588c-.75-.092-1.18-.552-1.169-1.281.01-.735.45-1.213 1.228-1.201.837.014 1.317.515 1.258 1.325-.052.718-.54 1.14-1.316 1.157" transform="translate(393 52)"/>
        <path fill="#414350" d="M200.573 140.39c-.774-.04-1.266-.432-1.305-1.182-.04-.739.386-1.262 1.133-1.322.83-.068 1.342.443 1.367 1.24.024.741-.474 1.162-1.195 1.264" transform="translate(393 52)"/>
        <path fill="#3D3F4C" d="M182.94 139.1c-.046.838-.484 1.27-1.229 1.264-.732-.005-1.232-.42-1.242-1.192-.01-.836.497-1.315 1.302-1.285.731.028 1.143.517 1.17 1.213" transform="translate(393 52)"/>
        <path fill="#424450" d="M212.978 131.597c.774.11 1.265.47 1.288 1.245.022.77-.436 1.266-1.156 1.297-.792.034-1.328-.444-1.326-1.286.002-.778.547-1.107 1.194-1.256" transform="translate(393 52)"/>
        <path fill="#3D3F4C" d="M182.93 126.75c-.079.676-.517 1.136-1.253 1.103-.801-.036-1.276-.54-1.202-1.379.069-.776.607-1.142 1.33-1.096.745.047 1.142.521 1.125 1.373" transform="translate(393 52)"/>
        <path fill="#40424F" d="M201.796 126.664c-.152.721-.552 1.23-1.303 1.198-.816-.033-1.286-.565-1.214-1.384.066-.743.564-1.165 1.328-1.101.758.062 1.116.563 1.189 1.287" transform="translate(393 52)"/>
        <path fill="#3E404D" d="M213.066 125.36c.752.076 1.197.477 1.193 1.243-.005.756-.451 1.244-1.188 1.252-.805.01-1.308-.49-1.278-1.314.027-.757.54-1.12 1.273-1.182" transform="translate(393 52)"/>
        <path fill="#3D3F4C" d="M189.225 126.549c-.016.788-.44 1.267-1.163 1.302-.803.04-1.306-.425-1.303-1.27.003-.78.477-1.192 1.22-1.196.745-.005 1.183.416 1.246 1.164" transform="translate(393 52)"/>
        <path fill="#414350" d="M189.228 132.84c-.008.8-.46 1.27-1.18 1.297-.798.028-1.312-.441-1.297-1.3.014-.791.519-1.207 1.242-1.203.728.003 1.19.443 1.235 1.207M206.796 159.21c-.759-.047-1.226-.485-1.263-1.209-.037-.732.387-1.232 1.162-1.279.853-.05 1.343.441 1.34 1.246-.002.724-.47 1.174-1.239 1.242" transform="translate(393 52)"/>
        <path fill="#3E404D" d="M201.804 107.729c-.115.762-.464 1.252-1.237 1.29-.778.036-1.258-.408-1.295-1.135-.04-.793.415-1.33 1.26-1.336.776-.005 1.105.536 1.272 1.181M200.62 156.716c.664.047 1.146.475 1.141 1.208-.005.793-.49 1.306-1.334 1.26-.767-.041-1.183-.566-1.158-1.286.025-.725.47-1.177 1.35-1.182" transform="translate(393 52)"/>
        <path fill="#3D3F4C" d="M214.27 151.732c-.089.75-.475 1.196-1.25 1.182-.764-.015-1.22-.465-1.224-1.201-.005-.818.495-1.285 1.322-1.251.773.032 1.111.539 1.152 1.27M194.252 152.927c-.78-.036-1.214-.447-1.233-1.2-.02-.749.376-1.238 1.146-1.265.83-.028 1.325.449 1.313 1.263-.01.736-.478 1.153-1.226 1.202" transform="translate(393 52)"/>
        <path fill="#3E404D" d="M200.435 144.154c.782.01 1.269.435 1.323 1.153.06.809-.42 1.313-1.256 1.33-.777.015-1.22-.468-1.234-1.2-.012-.727.423-1.187 1.167-1.283" transform="translate(393 52)"/>
        <path fill="#3C3E4B" d="M187.91 156.706c.806.062 1.287.422 1.297 1.195.012.833-.468 1.309-1.286 1.28-.742-.027-1.164-.5-1.163-1.26.001-.788.487-1.127 1.151-1.215" transform="translate(393 52)"/>
        <path fill="#3D3F4C" d="M194.169 140.383c-.748-.105-1.18-.52-1.154-1.285.026-.759.486-1.226 1.224-1.212.804.016 1.295.525 1.238 1.35-.052.756-.577 1.102-1.308 1.147" transform="translate(393 52)"/>
        <path fill="#41434F" d="M195.517 132.854c-.095.798-.53 1.283-1.258 1.283-.81 0-1.29-.507-1.245-1.347.042-.772.55-1.19 1.283-1.156.732.035 1.14.526 1.22 1.22" transform="translate(393 52)"/>
        <path fill="#3C3E4B" d="M220.547 157.92c-.036.75-.423 1.234-1.17 1.261-.818.03-1.303-.449-1.291-1.276.01-.765.481-1.175 1.233-1.176.762-.002 1.17.428 1.228 1.191M187.915 144.137c.802.107 1.276.469 1.294 1.238.016.764-.4 1.222-1.157 1.25-.826.03-1.302-.411-1.292-1.259.01-.785.531-1.097 1.155-1.229" transform="translate(393 52)"/>
        <path fill="#3C3E4C" d="M195.51 114.032c-.085.714-.415 1.21-1.187 1.261-.77.051-1.248-.35-1.3-1.1-.055-.806.353-1.332 1.208-1.347.772-.015 1.138.47 1.279 1.186" transform="translate(393 52)"/>
        <path fill="#3C3E4B" d="M188.018 121.606c-.802-.13-1.266-.51-1.258-1.279.011-.854.521-1.266 1.338-1.21.754.054 1.148.533 1.11 1.295-.038.783-.565 1.08-1.19 1.194" transform="translate(393 52)"/>
        <path fill="#3D3F4C" d="M195.518 120.25c-.1.792-.47 1.29-1.221 1.316-.84.03-1.293-.474-1.28-1.29.014-.756.47-1.173 1.24-1.166.78.007 1.112.51 1.261 1.14M195.517 126.581c-.117.785-.525 1.28-1.263 1.273-.812-.007-1.277-.514-1.234-1.344.04-.772.53-1.165 1.278-1.13.758.034 1.118.533 1.22 1.201" transform="translate(393 52)"/>
        <path fill="#3C3E4B" d="M194.252 106.529c.733.093 1.219.494 1.226 1.233.01.823-.501 1.28-1.322 1.25-.764-.029-1.17-.505-1.137-1.264.032-.755.49-1.142 1.233-1.22M195.508 158.008c-.148.72-.538 1.207-1.297 1.177-.835-.034-1.25-.57-1.187-1.38.058-.768.564-1.134 1.318-1.073.763.061 1.106.553 1.166 1.276M214.27 157.955c-.064.718-.434 1.217-1.193 1.23-.82.012-1.308-.486-1.281-1.298.024-.74.508-1.167 1.264-1.16.771.006 1.154.456 1.21 1.228" transform="translate(393 52)"/>
        <path fill="#3B3D4B" d="M182.935 157.99c-.069.73-.472 1.197-1.22 1.191-.821-.007-1.287-.509-1.241-1.329.043-.756.54-1.15 1.29-1.123.763.028 1.143.483 1.171 1.261" transform="translate(393 52)"/>
        <path fill="#3C3E4B" d="M214.27 120.362c-.085.735-.472 1.215-1.23 1.205-.824-.011-1.294-.525-1.243-1.333.046-.74.549-1.15 1.3-1.124.773.028 1.134.5 1.172 1.252" transform="translate(393 52)"/>
        <path fill="#3B3D4B" d="M181.668 144.148c.732.07 1.211.423 1.252 1.19.042.76-.351 1.245-1.11 1.288-.812.047-1.33-.38-1.337-1.222-.007-.76.47-1.142 1.195-1.256M182.941 120.308c-.076.798-.476 1.264-1.228 1.257-.823-.008-1.285-.513-1.238-1.33.043-.755.546-1.148 1.292-1.124.772.024 1.127.502 1.174 1.197" transform="translate(393 52)"/>
        <path fill="#3C3E4B" d="M195.51 145.434c-.116.719-.492 1.185-1.258 1.196-.769.013-1.222-.414-1.232-1.17-.01-.816.442-1.318 1.282-1.286.755.03 1.118.53 1.207 1.26M214.27 145.446c-.075.762-.475 1.196-1.246 1.181-.755-.013-1.225-.448-1.228-1.193-.003-.815.499-1.297 1.317-1.26.753.034 1.119.538 1.156 1.272" transform="translate(393 52)"/>
        <path fill="#3B3D4B" d="M181.786 152.927c-.769-.023-1.265-.392-1.31-1.14-.048-.816.403-1.315 1.238-1.32.76-.006 1.188.44 1.206 1.198.019.761-.403 1.173-1.134 1.262" transform="translate(393 52)"/>
        <path fill="#393B49" d="M220.556 151.617c-.085.862-.488 1.309-1.27 1.29-.776-.018-1.212-.472-1.198-1.243.015-.772.475-1.2 1.247-1.2.8.002 1.132.514 1.221 1.153M188.027 115.31c-.765-.046-1.246-.411-1.262-1.199-.016-.771.405-1.239 1.18-1.26.77-.02 1.232.412 1.26 1.185.027.779-.42 1.188-1.178 1.273M189.225 151.743c-.099.748-.507 1.194-1.286 1.165-.776-.03-1.2-.488-1.173-1.263.028-.776.491-1.201 1.262-1.177.778.024 1.152.505 1.197 1.275" transform="translate(393 52)"/>
        <path fill="#383A48" d="M265.03 128.506L265.03 141.308 267.672 140.996 267.672 130.314z" transform="translate(393 52)"/>
        <path fill="#F7F7F5" d="M211.785 75.187L208.035 80.183 265.058 136.157 265.058 125.28 213.025 75.187z" transform="translate(393 52)"/>
    </g>
</svg>
