<?xml version="1.0" encoding="UTF-8"?>
<svg width="184px" height="32px" viewBox="0 0 184 32" version="1.1" xmlns="http://www.w3.org/2000/svg" xmlns:xlink="http://www.w3.org/1999/xlink">
    <!-- Generator: sketchtool 59.1 (101010) - https://sketch.com -->
    <title>8E8E3925-2A62-4EAE-B2E4-3D3DA461896D</title>
    <desc>Created with sketchtool.</desc>
    <g id="Page-1" stroke="none" stroke-width="1" fill="none" fill-rule="evenodd">
        <g id="OD0_1_Inicio_sesión" transform="translate(-96.000000, -66.000000)" fill="#FF0033">
            <g id="Atoms/Icons/Logo/Officedepot" transform="translate(96.000000, 66.000000)">
                <g id="atoms/Icons-Color/office_horizontal" transform="translate(4.658228, 5.615385)">
                    <g id="Office_Depot_logo-Copy" transform="translate(0.744013, 0.732601)">
                        <path d="M170.433695,16.3164331 L170.433695,17.2158998 L170.798632,17.2158998 C170.983708,17.2158998 171.166176,17.0370285 171.166176,17.0370285 C171.348645,17.0370285 171.348645,16.8581573 171.348645,16.8581573 C171.348645,16.6767308 171.348645,16.4978596 171.166176,16.4978596 C171.166176,16.4978596 170.983708,16.3164331 170.798632,16.3164331 L170.433695,16.3164331 Z M169.881077,16.1375619 L170.798632,16.1375619 C171.166176,16.1375619 171.531113,16.1375619 171.716188,16.3164331 C171.716188,16.3164331 171.898657,16.4978596 171.898657,16.6767308 C171.898657,16.8581573 171.898657,17.0370285 171.716188,17.2158998 C171.716188,17.2158998 171.531113,17.394771 171.348645,17.394771 L171.898657,18.4731088 L171.348645,18.4731088 L170.798632,17.394771 L170.433695,17.394771 L170.433695,18.4731088 L169.881077,18.4731088 L169.881077,16.1375619 Z M170.798632,15.4195218 C170.983708,15.4195218 171.348645,15.598393 171.531113,15.598393 C171.716188,15.7772642 171.898657,15.7772642 172.081125,15.9561354 C172.266201,16.1375619 172.448669,16.3164331 172.448669,16.6767308 C172.631138,16.8581573 172.631138,17.0370285 172.631138,17.394771 C172.631138,17.5761975 172.631138,17.7550687 172.448669,17.9339399 C172.448669,18.2942376 172.266201,18.4731088 172.081125,18.65198 C171.898657,18.65198 171.716188,18.8334065 171.531113,19.0122778 C171.348645,19.0122778 170.983708,19.0122778 170.798632,19.0122778 C170.616164,19.0122778 170.24862,19.0122778 170.066152,19.0122778 C169.881077,18.8334065 169.698608,18.65198 169.51614,18.4731088 C169.333671,18.2942376 169.148596,18.1153664 169.148596,17.9339399 C168.966127,17.7550687 168.966127,17.5761975 168.966127,17.2158998 C168.966127,17.0370285 168.966127,16.8581573 169.148596,16.6767308 C169.148596,16.3164331 169.333671,16.1375619 169.51614,15.9561354 C169.698608,15.7772642 169.881077,15.7772642 170.066152,15.598393 C170.24862,15.598393 170.616164,15.4195218 170.798632,15.4195218 Z M170.798632,15.2380952 C171.166176,15.2380952 171.348645,15.2380952 171.716188,15.4195218 C171.898657,15.4195218 172.081125,15.598393 172.266201,15.7772642 C172.631138,15.9561354 172.631138,16.3164331 172.816213,16.4978596 C172.998681,16.6767308 172.998681,17.0370285 172.998681,17.2158998 C172.998681,17.5761975 172.998681,17.9339399 172.816213,18.1153664 C172.631138,18.2942376 172.631138,18.65198 172.266201,18.8334065 C172.081125,19.0122778 171.898657,19.191149 171.716188,19.191149 C171.348645,19.3725755 171.166176,19.3725755 170.798632,19.3725755 C170.616164,19.3725755 170.24862,19.3725755 170.066152,19.191149 C169.698608,19.191149 169.51614,19.0122778 169.333671,18.8334065 C169.148596,18.65198 168.966127,18.2942376 168.783659,18.1153664 C168.783659,17.7550687 168.598584,17.5761975 168.598584,17.2158998 C168.598584,17.0370285 168.783659,16.6767308 168.783659,16.4978596 C168.966127,16.1375619 169.148596,15.9561354 169.333671,15.7772642 C169.51614,15.598393 169.698608,15.4195218 170.066152,15.4195218 C170.24862,15.2380952 170.433695,15.2380952 170.798632,15.2380952 L170.798632,15.2380952 Z" id="Fill-4"></path>
                        <path d="M96.2604591,8.74543085 L94.1792802,8.74543085 L94.1792802,16.3437112 L96.2604591,16.3437112 C97.337283,16.3437112 98.27019,15.9925133 98.917305,15.2891171 C99.6338267,14.5847203 100.064556,13.6001657 100.064556,12.544571 C100.064556,11.4889764 99.6338267,10.5744612 98.917305,9.87106495 C98.27019,9.16766871 97.337283,8.74543085 96.2604591,8.74543085 Z M105.376207,6.07092423 L118.224603,6.07092423 L118.224603,9.94110441 L113.918329,9.94110441 L113.918329,8.74543085 L111.907577,8.74543085 L111.907577,11.4889764 L113.918329,11.4889764 L113.918329,10.7855801 L117.004883,10.7855801 L117.004883,14.3035619 L113.918329,14.3035619 L113.918329,13.6702051 L111.907577,13.6702051 L111.907577,16.3437112 L113.918329,16.3437112 L113.918329,15.2180771 L118.224603,15.2180771 L118.224603,18.9471778 L105.089394,18.9471778 L105.089394,16.3437112 L107.529854,16.3437112 L107.529854,8.74543085 L105.089394,8.74543085 L105.089394,6.07092423 L105.376207,6.07092423 Z M127.77108,8.74543085 L126.55034,8.74543085 L126.55034,12.3334521 L127.77108,12.3334521 C128.273258,12.3334521 128.703987,12.1223332 129.063269,11.7711353 C129.42153,11.4889764 129.565446,10.9966991 129.565446,10.5044217 C129.565446,10.0111439 129.42153,9.588906 129.063269,9.23770816 C128.703987,8.95654978 128.273258,8.74543085 127.77108,8.74543085 Z M119.947521,6.07092423 L128.847904,6.07092423 C128.919352,6.07092423 128.919352,6.07092423 128.919352,6.07092423 C129.278634,6.07092423 129.636894,6.14196425 130.067624,6.14196425 C130.426905,6.2120037 130.786187,6.28304372 131.144448,6.42312263 C132.938814,6.91539994 134.446367,8.18211352 134.517815,10.4333817 L134.517815,10.5044217 C134.517815,11.9822542 133.800273,13.0368483 132.723449,13.8112846 C131.718073,14.5146808 130.355457,14.8668792 129.063269,14.8668792 L126.55034,14.8668792 L126.55034,16.3437112 L129.063269,16.3437112 L129.063269,18.9471778 L119.659688,18.9471778 L119.659688,16.3437112 L122.172617,16.3437112 L122.172617,8.74543085 L119.659688,8.74543085 L119.659688,6.07092423 L119.947521,6.07092423 Z M144.136761,8.74543085 L144.064292,8.74543085 C143.058916,8.74543085 142.126009,9.16766871 141.408467,9.87106495 C140.762373,10.5744612 140.331643,11.4889764 140.331643,12.544571 C140.331643,13.6001657 140.762373,14.5847203 141.408467,15.2891171 C142.126009,15.9925133 143.058916,16.3437112 144.064292,16.3437112 L144.136761,16.3437112 C145.141116,16.3437112 146.074023,15.9925133 146.791565,15.2891171 C147.43766,14.5847203 147.868389,13.6001657 147.868389,12.544571 C147.868389,11.4889764 147.43766,10.5744612 146.791565,9.87106495 C146.074023,9.16766871 145.141116,8.74543085 144.136761,8.74543085 Z M143.848927,5.86080586 C144.136761,5.86080586 144.351105,5.86080586 144.638938,5.86080586 C146.791565,5.86080586 148.801296,6.35308317 150.237402,7.3376378 C151.744955,8.32319299 152.74931,9.80002493 152.893227,11.7000953 C152.893227,11.7711353 152.893227,11.9112142 152.893227,12.0522937 L152.893227,12.1223332 C152.893227,12.6856505 152.820758,13.2489678 152.677862,13.7412451 C152.533945,14.3035619 152.318581,14.7968398 152.031768,15.2180771 C150.668131,17.5403853 147.796941,19.0172172 144.423574,19.2293367 C144.208209,19.2293367 144.064292,19.2993762 143.920375,19.2993762 C141.623832,19.3694156 139.614101,18.8771383 138.107568,17.8915831 C136.528567,16.8359885 135.523191,15.429196 135.379274,13.4590862 C135.379274,13.3890467 135.379274,13.3190073 135.379274,13.1779278 C135.379274,12.544571 135.450722,11.9822542 135.523191,11.4889764 C135.666087,10.9266596 135.881452,10.4333817 136.168265,10.0111439 C137.532922,7.61979675 140.47556,6.14196425 143.848927,5.86080586 Z M153.610769,6.07092423 L168.971074,6.07092423 L168.971074,9.94110441 L165.095529,9.94110441 L165.095529,8.74543085 L163.372611,8.74543085 L163.372611,16.3437112 L165.669155,16.3437112 L165.669155,18.9471778 L156.553407,18.9471778 L156.553407,16.3437112 L159.066336,16.3437112 L159.066336,8.74543085 L157.128054,8.74543085 L157.128054,9.94110441 L153.323956,9.94110441 L153.323956,6.07092423 L153.610769,6.07092423 Z M87.5754412,6.07092423 L98.4141068,6.07092423 C100.064556,6.07092423 101.716026,6.63424156 102.935746,7.6898362 C104.156487,8.8154703 105.017946,10.3633423 105.017946,12.4745316 C105.017946,14.6557603 103.941122,16.2036323 102.433569,17.3282658 C100.926015,18.3838604 98.9887531,18.9471778 97.337283,18.9471778 L87.2886284,18.9471778 L87.2886284,16.3437112 L89.8730056,16.3437112 L89.8730056,8.74543085 L87.2886284,8.74543085 L87.2886284,6.07092423 L87.5754412,6.07092423 L87.5754412,6.07092423 Z" id="Fill-6"></path>
                        <path d="M77.9731484,10.3122959 C77.9731484,9.85869471 77.7084668,9.3406877 77.3790226,8.95333255 C76.9829387,8.49973138 76.3888129,8.24118792 75.6632848,8.24118792 C75.530944,8.24118792 75.4652429,8.24118792 75.3329021,8.24118792 C74.6064354,8.24118792 74.0132482,8.49973138 73.5505246,8.82360077 C73.1544407,9.21187601 72.8906976,9.72896294 72.8249965,10.3122959 L77.9731484,10.3122959 Z M9.98938572,1.44729135 L9.98938572,1.44729135 C10.2531288,1.3828855 10.4511707,1.3828855 10.7149138,1.3828855 C13.2228193,1.31755957 15.4679204,1.96529836 17.2493593,3.19452991 C18.9660356,4.48816732 20.1533487,6.30073181 20.2856895,8.69478908 C20.3523292,8.82360077 20.3523292,8.95333255 20.3523292,9.14747016 C20.4180303,12.8351648 18.3052701,15.6819032 15.0718365,17.1696782 C14.411071,17.4282217 13.751244,17.6876852 13.025716,17.8818228 C12.365889,18.0106345 11.5737213,18.1403663 10.8472546,18.2056922 L10.7815535,18.2056922 C10.6492127,18.2056922 10.4511707,18.2700981 10.3188299,18.2700981 C7.74522324,18.3345039 5.36871994,17.7520911 3.65298217,16.4575336 C1.87060469,15.2936279 0.682353041,13.3522518 0.484311099,10.8937886 C0.484311099,10.8293828 0.484311099,10.699651 0.484311099,10.5708393 C0.287207745,6.81781874 2.46473052,3.90575446 5.76480382,2.48330537 C6.35892965,2.15943598 7.08445771,1.96529836 7.74522324,1.77116074 C8.4707513,1.57702312 9.19721795,1.51261728 9.98938572,1.44729135 Z M10.5168718,4.55349325 C10.1874277,4.55349325 9.8570449,4.61789909 9.59330184,4.68322502 C9.19721795,4.74763086 8.86683519,4.81203671 8.53739101,4.94176848 C8.20700824,5.07058017 7.87662548,5.26471779 7.5471813,5.45885541 C6.16088771,6.4295435 5.170678,7.98264445 5.170678,9.79428887 C5.170678,10.1172382 5.170678,10.3767017 5.2373177,10.699651 C5.43535965,11.8000709 5.89714465,12.770759 6.68931241,13.4819835 C7.41484048,14.258534 8.33934907,14.7756209 9.39525989,14.9706786 C9.72470407,14.9706786 10.0550868,15.0350845 10.3854696,15.0350845 C10.6492127,15.0350845 10.9795954,15.0350845 11.2433385,14.9706786 C11.6394224,14.9053527 11.9688666,14.7756209 12.2992493,14.6468092 C12.6953332,14.5170775 13.025716,14.3238599 13.289459,14.1297223 C14.7414537,13.2234401 15.6659623,11.6059333 15.6659623,9.79428887 C15.6659623,9.53482532 15.6659623,9.21187601 15.5993226,8.95333255 C15.4679204,7.85291268 14.9394957,6.88222459 14.213029,6.10567411 C13.4217998,5.39444956 12.4972913,4.87644255 11.4413804,4.68322502 C11.1109977,4.61789909 10.8472546,4.55349325 10.5168718,4.55349325 Z M21.4739412,6.10567411 L24.1141875,6.10567411 L24.1141875,4.42376147 C24.1141875,3.38866753 24.5759725,2.41797944 25.3681403,1.64142897 C26.1603081,0.864878491 27.3485597,0.347791563 28.7339147,0.347791563 L32.8927955,0.347791563 L32.8927955,2.80625468 L30.7809739,2.80625468 C30.1202083,2.80625468 29.5260825,2.87066052 29.1299986,3.13012407 C28.7339147,3.32426169 28.4701717,3.71253693 28.4701717,4.2940297 L28.4701717,6.10567411 L31.9682869,6.10567411 L31.9682869,8.56505731 L28.4701717,8.56505731 L28.4701717,15.5521714 L31.5065019,15.5521714 L31.5065019,17.9462287 L21.2101981,17.9462287 L21.2101981,15.5521714 L24.1141875,15.5521714 L24.1141875,8.56505731 L21.2101981,8.56505731 L21.2101981,6.10567411 L21.4739412,6.10567411 Z M33.5526224,6.10567411 L36.1262291,6.10567411 L36.1262291,4.42376147 C36.1262291,3.38866753 36.5889527,2.41797944 37.3801819,1.64142897 C38.2389893,0.864878491 39.3615399,0.347791563 40.812596,0.347791563 L44.9714768,0.347791563 L44.9714768,2.80625468 L42.8587165,2.80625468 C42.1988896,2.80625468 41.6047638,2.87066052 41.1429788,3.13012407 C40.812596,3.32426169 40.5488529,3.71253693 40.5488529,4.2940297 L40.5488529,6.10567411 L43.9812671,6.10567411 L43.9812671,8.56505731 L40.5488529,8.56505731 L40.5488529,15.5521714 L43.5851832,15.5521714 L43.5851832,17.9462287 L33.2879408,17.9462287 L33.2879408,15.5521714 L36.1262291,15.5521714 L36.1262291,8.56505731 L33.2879408,8.56505731 L33.2879408,6.10567411 L33.5526224,6.10567411 Z M50.2519695,0.282465635 C50.9774976,0.282465635 51.7039642,0.541929182 52.2314503,0.864878491 C52.759875,1.25315373 53.0902578,1.83556658 53.0902578,2.41797944 C53.0902578,3.0003923 52.759875,3.58280515 52.2314503,3.97108039 C51.7039642,4.2940297 50.9774976,4.55349325 50.2519695,4.55349325 C49.4588632,4.55349325 48.7990362,4.2940297 48.2715501,3.97108039 C47.7431254,3.58280515 47.4136812,3.0003923 47.4136812,2.41797944 C47.4136812,1.83556658 47.7431254,1.25315373 48.2715501,0.864878491 C48.7990362,0.541929182 49.4588632,0.282465635 50.2519695,0.282465635 Z M45.564664,6.10567411 L52.5618331,6.10567411 L52.5618331,15.5521714 L55.0040375,15.5521714 L55.0040375,17.9462287 L45.300921,17.9462287 L45.300921,15.5521714 L48.1392093,15.5521714 L48.1392093,8.56505731 L45.300921,8.56505731 L45.300921,6.10567411 L45.564664,6.10567411 Z M66.950378,6.36513766 L66.950378,10.0528323 L63.7826455,10.0528323 L63.7826455,8.56505731 C63.6503047,8.56505731 63.5846036,8.56505731 63.5179638,8.56505731 C63.3199219,8.56505731 63.12188,8.56505731 62.9904777,8.56505731 C62.5277541,8.56505731 62.0659691,8.62946315 61.6698853,8.75919493 C61.6041841,8.75919493 61.538483,8.75919493 61.538483,8.82360077 C61.2081002,8.88800662 60.9434186,9.08214424 60.6796755,9.21187601 C60.6796755,9.27628185 60.6139744,9.3406877 60.5482733,9.3406877 C60.4159325,9.47041947 60.3502314,9.53482532 60.2178905,9.66455709 C60.1521894,9.72896294 60.0864883,9.85869471 60.0198486,9.98842648 C59.6237647,10.5055134 59.4257228,11.0879263 59.4257228,11.734745 C59.4257228,11.8000709 59.4257228,11.8644767 59.4257228,11.9288826 C59.4923625,12.0586144 59.4923625,12.1883461 59.4923625,12.3171578 C59.5580636,12.4468896 59.5580636,12.5766214 59.6237647,12.7063531 C59.8218067,13.3522518 60.2178905,13.9346646 60.8120164,14.3882658 C61.538483,14.9053527 62.5277541,15.0994903 63.5846036,15.0994903 C64.6405144,15.1638962 65.7621263,14.9706786 66.6209338,14.8409469 L66.950378,14.7756209 L66.950378,17.4282217 L66.752336,17.4935476 C65.9601683,17.6876852 65.3003413,17.8164969 64.5738747,17.9462287 C63.8483466,18.0106345 63.12188,18.0759605 62.3297122,18.0759605 C62.19831,18.0759605 62.0659691,18.0759605 61.9345669,18.0759605 C61.4061422,18.0759605 60.9434186,18.0106345 60.4816336,17.9462287 C59.9541475,17.8164969 59.4923625,17.6876852 59.0296389,17.5579534 C56.7854764,16.7823231 55.1354398,15.0994903 55.1354398,11.9288826 C55.1354398,11.9288826 55.1354398,11.9288826 55.1354398,11.8644767 C55.1354398,11.4117957 55.2011409,10.8937886 55.3334817,10.4411076 C55.4658225,9.98842648 55.6638645,9.53482532 55.9276075,9.14747016 C57.1824989,7.14168813 59.6237647,5.91245658 62.19831,5.84713065 L62.2640111,5.84713065 C62.462053,5.84713065 62.660095,5.84713065 62.9247766,5.84713065 C63.12188,5.84713065 63.3865616,5.84713065 63.6503047,5.84713065 C64.7062155,5.91245658 65.7621263,5.97686242 66.6866349,6.10567411 L66.950378,6.17100004 L66.950378,6.36513766 Z M76.5211537,15.4233597 C76.7848968,15.4233597 76.9829387,15.4233597 77.1809807,15.4233597 C77.3790226,15.4233597 77.6427657,15.4233597 77.8417462,15.4233597 C79.0290593,15.3580338 80.2173109,15.1638962 81.0751798,14.7756209 L81.4712637,14.5824034 L81.4712637,17.4282217 L81.2732217,17.4935476 C81.0751798,17.5579534 80.8114367,17.6223593 80.6133948,17.6876852 C80.3496517,17.7520911 80.0849701,17.8164969 79.8869281,17.8818228 C78.5672743,18.1403663 77.1152795,18.2700981 75.7289859,18.2700981 C75.5966451,18.2700981 75.3986032,18.2700981 75.2672009,18.2056922 C74.7387762,18.2056922 74.2103515,18.1403663 73.6828654,18.0759605 C73.1544407,17.9462287 72.6269546,17.8164969 72.1651696,17.6876852 C69.7229652,16.8467289 68.0729285,15.2292221 68.0062888,12.0586144 C68.0062888,11.9942085 68.0062888,11.9288826 68.0062888,11.9288826 C68.0729285,11.3473898 68.1386296,10.7640569 68.2709705,10.3122959 C68.4690124,9.79428887 68.6661157,9.3406877 68.9298588,8.88800662 C70.2504513,6.75249281 72.8249965,5.71739887 75.5966451,5.71739887 L75.6632848,5.71739887 C76.1907709,5.71739887 76.7191957,5.7827248 77.1809807,5.84713065 C77.6427657,5.91245658 78.1054892,6.04126827 78.5006345,6.23540588 C80.6790959,7.01195636 82.1310906,8.75919493 82.1310906,11.5415274 L82.1310906,12.7063531 L72.7583568,12.7063531 C72.7583568,12.8995707 72.8249965,13.0937083 72.8906976,13.2878459 C72.9563988,13.5463894 73.0230385,13.740527 73.1544407,13.9346646 C73.7485665,14.9706786 75.0034579,15.3580338 76.5211537,15.4233597 L76.5211537,15.4233597 Z" id="Fill-7"></path>
                    </g>
                </g>
            </g>
        </g>
    </g>
</svg>