<svg xmlns="http://www.w3.org/2000/svg" width="24" height="24" viewBox="0 0 24 24">
    <path fill="#FF2F2F" d="M21.584 17.451L14.52 4.464c-1.135-1.911-3.902-1.914-5.038 0L2.416 17.45c-1.16 1.953.244 4.426 2.519 4.426h14.13c2.272 0 3.68-2.471 2.52-4.426zM12 19.533c-.646 0-1.172-.526-1.172-1.172 0-.646.526-1.172 1.172-1.172.646 0 1.172.526 1.172 1.172 0 .646-.526 1.172-1.172 1.172zm1.172-4.688c0 .646-.526 1.172-1.172 1.172-.646 0-1.172-.526-1.172-1.172V8.986c0-.646.526-1.172 1.172-1.172.646 0 1.172.526 1.172 1.172v5.86z"/>
</svg>
