<svg xmlns="http://www.w3.org/2000/svg" width="24" height="24" viewBox="0 0 24 24">
    <path fill="#F03" d="M20.07 3H3.93C2.864 3 2 4.046 2 5.33v13.48c0 1.286.865 2.332 1.93 2.332h16.14c1.065 0 1.93-1.046 1.93-2.331V5.33C22 4.046 21.135 3 20.07 3zM7.734 10.83v6.108c0 .391-.262.708-.586.708-.324 0-.586-.317-.586-.708V10.83c-.401-.073-.71-.49-.71-.995 0-.506.309-.923.71-.996V7.204c0-.391.262-.708.586-.708.324 0 .586.317.586.708v1.634c.401.073.71.49.71.996 0 .505-.309.923-.71.995zm4.853 3.886v2.222c0 .391-.262.708-.586.708-.324 0-.586-.317-.586-.708v-2.222c-.401-.073-.71-.49-.71-.996 0-.505.309-.922.71-.995V7.204c0-.391.262-.708.586-.708.324 0 .586.317.586.708v5.52c.401.074.71.491.71.996 0 .506-.309.923-.71.996zm4.853-3.887v6.11c0 .39-.262.707-.586.707-.324 0-.586-.317-.586-.708V10.83c-.401-.072-.71-.49-.71-.995 0-.506.309-.923.71-.996V7.204c0-.391.262-.708.586-.708.324 0 .586.317.586.708v1.634c.401.073.71.49.71.996 0 .505-.309.922-.71.995z"/>
</svg>
