<?xml version="1.0" encoding="UTF-8"?>
<svg width="24px" height="24px" viewBox="0 0 24 24" version="1.1" xmlns="http://www.w3.org/2000/svg" xmlns:xlink="http://www.w3.org/1999/xlink">
    <!-- Generator: sketchtool 59.1 (101010) - https://sketch.com -->
    <title>B098D6F5-C5E9-4064-B4D5-300C67332928</title>
    <desc>Created with sketchtool.</desc>
    <g id="Page-1" stroke="none" stroke-width="1" fill="none" fill-rule="evenodd" opacity="0.802199591">
        <g id="OD_Publicidad_home_inactivos" transform="translate(-1264.000000, -346.000000)" fill="#B8B8B8">
            <g id="Table" transform="translate(280.000000, 94.000000)">
                <g id="fila_3" transform="translate(0.000000, 224.000000)">
                    <g id="Atoms/Table/Rows/icon" transform="translate(920.000000, 20.000000)">
                        <g id="Atoms/Icons/Color/Trashcan" transform="translate(64.000000, 8.000000)">
                            <path d="M18.9744039,8.14921544 L18.9744039,20.2868076 C18.9744039,21.2673051 18.2446966,22.0558493 17.3043729,22.0558493 L17.3043729,22.0558493 L7.55178679,22.0558493 C6.61126179,22.0558493 5.88155451,21.2673051 5.88155451,20.2868076 L5.88155451,20.2868076 L5.88155451,8.14921544 L18.9744039,8.14921544 Z M15.4692316,9.63320654 C15.2415001,9.63320654 15.0568584,9.80922772 15.0568584,10.0263269 L15.0568584,10.0263269 L15.0568584,19.3137962 C15.0568584,19.5308954 15.2415001,19.7069166 15.4692316,19.7069166 C15.6969631,19.7069166 15.8816048,19.5308954 15.8816048,19.3137962 L15.8816048,19.3137962 L15.8816048,10.0263269 C15.8816048,9.80922772 15.6969631,9.63320654 15.4692316,9.63320654 Z M12.4279792,9.63320654 C12.2002477,9.63320654 12.015606,9.80922772 12.015606,10.0263269 L12.015606,10.0263269 L12.015606,19.3137962 C12.015606,19.5308954 12.2002477,19.7069166 12.4279792,19.7069166 C12.6557107,19.7069166 12.8403524,19.5308954 12.8403524,19.3137962 L12.8403524,19.3137962 L12.8403524,10.0263269 C12.8403524,9.80922772 12.6557107,9.63320654 12.4279792,9.63320654 Z M9.38672679,9.63320654 C9.15899529,9.63320654 8.97435358,9.80922772 8.97435358,10.0263269 L8.97435358,10.0263269 L8.97435358,19.3137962 C8.97435358,19.5308954 9.15899529,19.7069166 9.38672679,19.7069166 C9.6144583,19.7069166 9.7991,19.5308954 9.7991,19.3137962 L9.7991,19.3137962 L9.7991,10.0263269 C9.7991,9.80922772 9.6144583,9.63320654 9.38672679,9.63320654 Z M19.3970462,5.39737269 C19.9664755,5.39737269 20.4279792,5.83732969 20.4279792,6.38017367 C20.4279792,6.92301765 19.9664755,7.36297465 19.3970462,7.36297465 L19.3970462,7.36297465 L5.45891223,7.36297465 C4.88948282,7.36297465 4.42797921,6.92301765 4.42797921,6.38017367 C4.42797921,5.83732969 4.88948282,5.39737269 5.45891223,5.39737269 L5.45891223,5.39737269 Z M14.7167713,2.05584935 C15.7968348,2.05584935 16.6548046,2.84439357 16.6548046,3.87403116 L16.6548046,3.87403116 L16.6548046,5.00425229 L15.8300582,5.00425229 L15.8300582,3.87403116 C15.8300582,3.27782419 15.3419758,2.84209013 14.7167713,2.84209013 L14.7167713,2.84209013 L10.1393884,2.84209013 C9.51398259,2.84209013 9.02590023,3.27782419 9.02590023,3.87403116 L9.02590023,3.87403116 L9.02590023,5.00425229 L8.20115382,5.00425229 L8.20115382,3.87403116 C8.20115382,2.84439357 9.05932499,2.05584935 10.1393884,2.05584935 L10.1393884,2.05584935 Z" id="Combined-Shape"></path>
                        </g>
                    </g>
                </g>
            </g>
        </g>
    </g>
</svg>