<?xml version="1.0" encoding="UTF-8"?>
<svg width="24px" height="24px" viewBox="0 0 24 24" version="1.1" xmlns="http://www.w3.org/2000/svg" xmlns:xlink="http://www.w3.org/1999/xlink">
    <!-- Generator: sketchtool 59.1 (101010) - https://sketch.com -->
    <title>C8ACFDF2-78AC-41D8-84D4-36648C339188</title>
    <desc>Created with sketchtool.</desc>
    <g id="Page-1" stroke="none" stroke-width="1" fill="none" fill-rule="evenodd">
        <g id="OD0_1-1_Inicio_sesión_Error" transform="translate(-328.000000, -362.000000)" fill="#A2A2A2" fill-rule="nonzero">
            <g id="Molecules/Textfield/Activated" transform="translate(88.000000, 350.000000)">
                <g id="Atoms/Icons/Textfield/Eye_on" transform="translate(240.000000, 12.000000)">
                    <path d="M11.9851082,6.00761905 C16.7726407,6.00761905 20.6514286,10.418355 21.7374892,11.7703896 C22.0477922,12.1693506 22.0477922,12.7234632 21.7374892,13.1002597 C20.6514286,14.4522944 16.7726407,18.8630303 11.9851082,18.8630303 C7.19757576,18.8630303 3.31878788,14.4522944 2.23272727,13.1002597 C1.92242424,12.7012987 1.92242424,12.1471861 2.23272727,11.7703896 C3.31878788,10.418355 7.19757576,6.00761905 11.9851082,6.00761905 Z M11.9851082,7.78077922 C9.41402597,7.78077922 7.33056277,9.86424242 7.33056277,12.4353247 C7.33056277,15.0064069 9.41402597,17.0898701 11.9851082,17.0898701 C14.5561905,17.0898701 16.6396537,15.0064069 16.6396537,12.4353247 C16.6396537,9.86424242 14.5561905,7.78077922 11.9851082,7.78077922 Z M11.9851082,9.22147186 C13.7582684,9.22147186 15.198961,10.6621645 15.198961,12.4353247 C15.198961,14.2084848 13.7582684,15.6491775 11.9851082,15.6491775 C10.2119481,15.6491775 8.77125541,14.2084848 8.77125541,12.4353247 C8.77125541,10.6621645 10.2119481,9.22147186 11.9851082,9.22147186 Z M11.7412987,10.418355 C10.7660606,10.418355 9.96813853,11.2162771 9.94597403,12.2136797 L9.94597403,12.2136797 L11.0098701,12.2136797 C11.0098701,11.8147186 11.3423377,11.4822511 11.7412987,11.4822511 L11.7412987,11.4822511 Z" id="Combined-Shape"></path>
                </g>
            </g>
        </g>
    </g>
</svg>