<?xml version="1.0" encoding="UTF-8"?>
<svg width="24px" height="24px" viewBox="0 0 24 24" version="1.1" xmlns="http://www.w3.org/2000/svg" xmlns:xlink="http://www.w3.org/1999/xlink">
    <!-- Generator: sketchtool 59.1 (101010) - https://sketch.com -->
    <title>CCF1642D-2D84-4AE9-9925-F85A4F047397</title>
    <desc>Created with sketchtool.</desc>
    <g id="Page-1" stroke="none" stroke-width="1" fill="none" fill-rule="evenodd">
        <g id="OD0_1-2_Inicio_sesión_lleno" transform="translate(-328.000000, -363.000000)" fill="#A2A2A2" fill-rule="nonzero">
            <g id="Molecules/Textfield/Focused" transform="translate(88.000000, 350.000000)">
                <g id="Atoms/Icons/Textfield/Eye_off" transform="translate(240.000000, 13.000000)">
                    <path d="M4.79289322,4.79289322 C5.18341751,4.40236893 5.81658249,4.40236893 6.20710678,4.79289322 L6.20710678,4.79289322 L8.27223755,6.85678807 C9.41447868,6.34284326 10.6652603,6.00761905 11.9851082,6.00761905 C16.7726407,6.00761905 20.6514286,10.418355 21.7374892,11.7703896 C22.0477922,12.1693506 22.0477922,12.7234632 21.7374892,13.1002597 C21.1734835,13.8023893 19.8563174,15.3294087 18.049846,16.6352108 L19.2071068,17.7928932 C19.5976311,18.1834175 19.5976311,18.8165825 19.2071068,19.2071068 C18.8165825,19.5976311 18.1834175,19.5976311 17.7928932,19.2071068 L17.7928932,19.2071068 L16.3044374,17.7196491 C15.0041026,18.3961615 13.5426999,18.8630303 11.9851082,18.8630303 C7.19757576,18.8630303 3.31878788,14.4522944 2.23272727,13.1002597 C1.92242424,12.7012987 1.92242424,12.1471861 2.23272727,11.7703896 C2.85069427,11.0010838 4.37283308,9.24149449 6.45207891,7.86763165 L4.79289322,6.20710678 C4.40236893,5.81658249 4.40236893,5.18341751 4.79289322,4.79289322 Z M7.33056277,12.4353247 C7.33056277,15.0064069 9.41402597,17.0898701 11.9851082,17.0898701 C13.0247003,17.0898701 13.9845711,16.7492425 14.7592256,16.1734822 L13.7232535,15.1381008 C13.221949,15.4614418 12.6251904,15.6491775 11.9851082,15.6491775 C10.2119481,15.6491775 8.77125541,14.2084848 8.77125541,12.4353247 C8.77125541,11.7954414 8.95887443,11.1988549 9.28203064,10.6976469 L8.24620918,9.66220525 C7.67089793,10.4366861 7.33056277,11.3961789 7.33056277,12.4353247 Z M11.9851082,7.78077922 C11.1795025,7.78077922 10.42177,7.98532901 9.76100292,8.34533663 L10.8449537,9.43007509 C11.1994011,9.29529078 11.5837371,9.22147186 11.9851082,9.22147186 C13.7582684,9.22147186 15.198961,10.6621645 15.198961,12.4353247 C15.198961,12.8365314 15.1252026,13.220717 14.9905234,13.5750436 L16.0749422,14.6597128 C16.4350455,13.9988791 16.6396537,13.2410454 16.6396537,12.4353247 C16.6396537,9.86424242 14.5561905,7.78077922 11.9851082,7.78077922 Z M9.95504208,12.0656402 L9.94597403,12.2136797 L10.798,12.213 L10.0982749,11.5133661 C10.0239844,11.6851429 9.97465341,11.870821 9.95504208,12.0656402 Z" id="Combined-Shape"></path>
                </g>
            </g>
        </g>
    </g>
</svg>