<?xml version="1.0" encoding="UTF-8"?>
<svg width="24px" height="24px" viewBox="0 0 24 24" version="1.1" xmlns="http://www.w3.org/2000/svg" xmlns:xlink="http://www.w3.org/1999/xlink">
    <!-- Generator: sketchtool 59.1 (101010) - https://sketch.com -->
    <title>64B42C13-88BA-4F27-A8EC-9013670BD749</title>
    <desc>Created with sketchtool.</desc>
    <g id="Page-1" stroke="none" stroke-width="1" fill="none" fill-rule="evenodd">
        <g id="OD_Publicidad_home" transform="translate(-16.000000, -732.000000)" fill="#666666">
            <g id="Organism/Menu">
                <g id="Molecules/Menu/tab_logout" transform="translate(0.000000, 720.000000)">
                    <g id="Atoms/Icons/Menu/Logout_on" transform="translate(16.000000, 12.000000)">
                        <path d="M9.65842951,2.96130904 L9.65842951,3.28606589 L9.65842951,3.28606589 L5,3.28606589 C4.44771525,3.28606589 4,3.73378114 4,4.28606589 L4,19.6910387 C4.00068595,20.2430556 4.44798338,20.6906599 4.99999976,20.6917244 L9.65842951,20.6949187 L9.65842951,20.6949187 L9.65842951,21.0386087 C9.65842951,21.5908935 10.1061448,22.0386087 10.6584295,22.0386087 C10.7080968,22.0386087 10.757695,22.0349085 10.8068125,22.0275387 L19.1387683,20.7773791 C19.6280375,20.7039672 19.9900798,20.2838123 19.9903852,19.7890664 L19.9999956,4.22092571 C20.0003011,3.72604046 19.6385794,3.30536442 19.1492363,3.23150747 L10.80767,1.97250812 C10.2615704,1.89008485 9.75205185,2.26596885 9.66962859,2.81206852 C9.66217302,2.86146579 9.65842951,2.9113523 9.65842951,2.96130904 Z M11.3720076,11.3165171 C11.7189825,11.3165171 12.0002882,11.6222991 12.0002882,11.9994495 C12.0002882,12.3766824 11.7190319,12.6823819 11.3720076,12.6823819 C11.0249832,12.6823819 10.7437269,12.3766824 10.7437269,11.9994495 C10.7436775,11.6222991 11.0250326,11.3165171 11.3720076,11.3165171 Z M5.68002693,18.2887673 L5.68002693,5.689493 C5.68002693,5.13720825 6.12774218,4.689493 6.68002693,4.689493 L9.65842951,4.689493 L9.65842951,4.689493 L9.65842951,19.2914503 L6.6800267,19.2894417 C6.12800588,19.2883948 5.68070155,18.8407887 5.68002693,18.2887673 Z" id="Shape"></path>
                    </g>
                </g>
            </g>
        </g>
    </g>
</svg>