<?xml version="1.0" encoding="UTF-8"?>
<svg width="24px" height="24px" viewBox="0 0 24 24" version="1.1" xmlns="http://www.w3.org/2000/svg" xmlns:xlink="http://www.w3.org/1999/xlink">
    <!-- Generator: sketchtool 59.1 (101010) - https://sketch.com -->
    <title>D0AE9601-3C96-4DAA-94FC-C6F731587D12</title>
    <desc>Created with sketchtool.</desc>
    <g id="Page-1" stroke="none" stroke-width="1" fill="none" fill-rule="evenodd" opacity="0.802199591">
        <g id="OD_Publicidad_home_inactivos" transform="translate(-1208.000000, -258.000000)" fill="#B8B8B8">
            <g id="Table" transform="translate(280.000000, 94.000000)">
                <g id="fila_2" transform="translate(0.000000, 136.000000)">
                    <g id="Atoms/Table/Rows/icon" transform="translate(920.000000, 20.000000)">
                        <g id="Atoms/Icons/Color/Edit" transform="translate(8.000000, 8.000000)">
                            <path d="M19.8977247,3.88196407 L20.6179204,4.60215994 C21.7919328,5.77878599 21.7919328,7.68356328 20.6177278,8.86038205 L9.67129115,19.8072981 C9.56577937,19.9128099 9.43488524,19.9891 9.29114023,20.0289167 L4.0940832,21.4686954 C3.79429549,21.5516513 3.47319441,21.4670431 3.2527355,21.2469214 C3.03279055,21.0266392 2.94824119,20.7054075 3.03148909,20.4057828 L4.47100837,15.2087969 C4.51082762,15.0650426 4.58711779,14.9341484 4.69262957,14.8286366 L15.6393021,3.88196406 C16.8152542,2.70601198 18.7217726,2.70601198 19.8977247,3.88196407 Z M5.75562505,17.0423931 L5.103361,19.3967995 L7.45759064,18.7445354 L5.75562505,17.0423931 Z M15.1653495,6.79855224 L6.55988595,15.404246 L9.09545427,17.9400247 L17.7011381,9.33434089 L15.1653495,6.79855224 Z M18.6763189,5.10318907 L18.572054,5.00957813 C18.1039655,4.63302396 17.4330593,4.63302572 16.9649463,5.00960457 L16.8607048,5.10319219 L16.3865753,5.57714717 L18.9225735,8.11314533 L19.3963162,7.63940276 C19.8635986,7.17099664 19.8947507,6.43196722 19.4899691,5.92751143 L19.3965578,5.82318829 L18.6763189,5.10318907 L18.572054,5.00957813 L18.6763189,5.10318907 Z" id="Combined-Shape"></path>
                        </g>
                    </g>
                </g>
            </g>
        </g>
    </g>
</svg>