<svg xmlns="http://www.w3.org/2000/svg" width="24" height="24" viewBox="0 0 24 24">
    <g fill="#9263d4" fill-rule="evenodd" transform="translate(2.325 1.667)">
        <path fill-rule="nonzero" d="M14.65 3.35c1.464 0 2.65 1.186 2.65 2.65v12c0 1.464-1.186 2.65-2.65 2.65h-12C1.186 20.65 0 19.464 0 18V6c0-1.464 1.186-2.65 2.65-2.65h12zM9.068 8.859l-.089.014-1.57.39c-.224.056-.38.256-.38.486v.1c0 .037.005.075.014.111.061.247.312.397.558.336l.729-.182v4.676h-.801c-.276 0-.5.224-.5.5v.05c0 .277.224.5.5.5h2.872c.276 0 .5-.223.5-.5v-.05c0-.276-.224-.5-.5-.5H9.6V9.358c0-.04-.005-.081-.015-.12-.067-.269-.338-.432-.606-.365z"/>
        <circle cx="15.65" cy="4" r="4" stroke="#FFF" stroke-width="1.3"/>
    </g>
</svg>
