<svg xmlns="http://www.w3.org/2000/svg" width="24" height="24" viewBox="0 0 24 24">
    <path fill="#CCC" fill-rule="evenodd" d="M20.125 2C21.161 2 22 2.84 22 3.875v16.25C22 21.161 21.16 22 20.125 22H3.875C2.839 22 2 21.16 2 20.125V3.875C2 2.839 2.84 2 3.875 2zm-9.643 9.49c-.243-.167-.578-.143-.794.072l-4.376 4.376-.071.087c-.166.245-.139.582.08.796.115.113.268.177.429.179h12.5l.092-.006c.302-.043.535-.302.537-.615 0-.168-.066-.33-.185-.448l-3.125-3.125-.087-.072c-.243-.167-.578-.143-.794.072l-1.438 1.438-2.681-2.681zM13.875 7C12.839 7 12 7.84 12 8.875c0 1.036.84 1.875 1.875 1.875 1.036 0 1.875-.84 1.875-1.875C15.75 7.839 14.91 7 13.875 7z"/>
</svg>
